<svg xmlns="http://www.w3.org/2000/svg" width="111" height="32" fill="none"><path fill="url(#a)" d="M32 2.61v26.78A2.603 2.603 0 0 1 29.39 32H2.61A2.603 2.603 0 0 1 0 29.39V2.61A2.603 2.603 0 0 1 2.61 0h26.78A2.603 2.603 0 0 1 32 2.61Z"/><path fill="#fff" fill-rule="evenodd" d="m17.526 3.2 2.915 2.916L9.936 16.62a4.122 4.122 0 0 1 0-5.83l7.59-7.59Zm-.003 7.382 2.915 2.915-6.857 6.857-2.915-2.914 6.857-6.858Zm3.765 9.446a4.122 4.122 0 0 0 0-5.83L10.667 24.82l2.915 2.915 7.706-7.707Z" clip-rule="evenodd"/><path fill="#000" d="M84.877 27.35c.48 0 1.03-.05 1.65-.15.62-.08 1.22-.28 1.8-.6.56-.32 1.03-.8 1.41-1.44.36-.66.54-1.56.54-2.7V10.07c0-.98-.15-1.8-.45-2.46-.3-.66-.7-1.18-1.2-1.56-.5-.38-1.05-.65-1.65-.81a6.85 6.85 0 0 0-1.77-.24c-1.5 0-2.82.02-3.96.06-1.16.04-2.2.09-3.12.15-.92.04-1.76.1-2.52.18v3.72h8.28c.62 0 1.1.15 1.44.45.34.3.51.76.51 1.38v3.21l-8.79.24v3.51l8.79.24v3.06c0 .52-.08.93-.24 1.23-.18.28-.41.48-.69.6-.3.1-.61.15-.93.15h-8.37v3.72c.88.1 1.86.18 2.94.24 1.06.06 2.14.11 3.24.15 1.08.04 2.11.06 3.09.06ZM67.27 27.35c.48 0 1.03-.05 1.65-.15.62-.08 1.22-.28 1.8-.6.56-.32 1.03-.8 1.41-1.44.36-.66.54-1.56.54-2.7V10.07c0-.98-.15-1.8-.45-2.46-.3-.66-.7-1.18-1.2-1.56-.5-.38-1.05-.65-1.65-.81A6.85 6.85 0 0 0 67.6 5c-1.5 0-2.82.02-3.96.06-1.16.04-2.2.09-3.12.15-.92.04-1.76.1-2.52.18v3.72h8.28c.62 0 1.1.15 1.44.45.34.3.51.76.51 1.38v3.21l-8.79.24v3.51l8.79.24v3.06c0 .52-.08.93-.24 1.23-.18.28-.41.48-.69.6-.3.1-.61.15-.93.15H58v3.72c.88.1 1.86.18 2.94.24 1.06.06 2.14.11 3.24.15 1.08.04 2.11.06 3.09.06ZM40 27.6V5.4h9.36c.72 0 1.45.09 2.19.27.76.16 1.45.5 2.07 1.02.64.5 1.15 1.26 1.53 2.28.4 1.02.6 2.37.6 4.05 0 1.68-.2 3.04-.6 4.08-.38 1.04-.88 1.83-1.5 2.37s-1.29.9-2.01 1.08c-.72.18-1.42.27-2.1.27-.36 0-.78-.01-1.26-.03-.48-.04-.97-.09-1.47-.15-.48-.06-.93-.11-1.35-.15-.42-.06-.76-.11-1.02-.15v7.26H40Zm4.44-10.77h4.41c.52 0 .96-.12 1.32-.36.38-.26.66-.66.84-1.2.18-.56.27-1.3.27-2.22 0-.9-.1-1.61-.3-2.13-.18-.54-.45-.93-.81-1.17-.34-.24-.75-.36-1.23-.36h-4.5v7.44ZM94.14 27.6V5.4h9.181c.88 0 1.7.11 2.46.33.76.2 1.43.56 2.01 1.08.58.52 1.03 1.24 1.35 2.16.34.92.51 2.1.51 3.54 0 1.02-.1 1.89-.3 2.61-.2.72-.47 1.31-.81 1.77-.32.46-.69.83-1.11 1.11-.42.28-.85.51-1.29.69l4.14 8.91h-4.53l-3.57-8.22h-.84c-.3-.02-.61-.03-.93-.03h-.96c-.32 0-.61-.01-.87-.03v8.28h-4.44Zm4.44-11.79h3.961c.4 0 .76-.05 1.08-.15.32-.1.6-.27.84-.51.24-.26.42-.6.54-1.02.14-.42.21-.96.21-1.62 0-.62-.07-1.13-.21-1.53-.12-.42-.3-.74-.54-.96-.24-.24-.52-.4-.84-.48-.32-.1-.68-.15-1.08-.15h-3.96v6.42Z"/><defs><linearGradient id="a" x1="32" x2="0" y1="0" y2="32" gradientUnits="userSpaceOnUse"><stop stop-color="#319BFF"/><stop offset=".536" stop-color="#0084FF"/></linearGradient></defs></svg>